<svg id="Layer_1" data-name="Layer 1" xmlns="http://www.w3.org/2000/svg" viewBox="0 0 56.13 32.78"><defs><style>.cls-1{fill:#32a7cb;}</style></defs><title>Untitled-2</title><path class="cls-1" d="M24.8,40.85c-3.81,0-9.21.09-13,.12a3.07,3.07,0,0,1-.42-.07,1.63,1.63,0,0,1,.09-.45q1.94-3.39,3.89-6.76c1.18-2,2.37-4.08,3.55-6.13l1.7-2.95c.16-.28.31-.3.46-.05l5.13,8.9q3.59,6.2,7.19,12.39a.72.72,0,0,0,.53.31c1.81,0,3.61,0,5.42,0a.69.69,0,0,0,.51-.29c.87-1.48,1.71-3,2.57-4.47l5.31-9.18,5.79-10C55,19.56,56.48,17,58,14.45c.19-.34.12-.45-.27-.45-1.73,0-3.47,0-5.21,0a.74.74,0,0,0-.73.43l-2.89,5q-2.22,3.87-4.45,7.74l-6,10.32-1.81,3.12a3.3,3.3,0,0,1-.34-.42l-4.35-7.51q-2.58-4.49-5.17-9L21.11,13.9a2.17,2.17,0,0,0-.24-.29,1.65,1.65,0,0,0-.3.29q-1.3,2.22-2.59,4.46l-3.22,5.57c-1.16,2-2.32,4-3.48,6L8,35.65,4.23,42.16,2,46c-.17.29-.11.4.24.42h.28l12.72-.06,12.19-.09Z" transform="translate(-1.94 -13.61)"/><path class="cls-1" d="M39.77,24.3l-3.12,5.41c-3.11-5.37-6.17-10.66-9.26-16a4.78,4.78,0,0,1,.5-.05h5.26a.63.63,0,0,1,.63.36c1.16,2,2.34,4,3.5,6.06C38.11,21.46,38.92,22.89,39.77,24.3Z" transform="translate(-1.94 -13.61)"/></svg>